<svg width="287" height="122" viewBox="0 0 287 122" fill="none" xmlns="http://www.w3.org/2000/svg">
<g filter="url(#filter0_f_351_14)">
<path d="M116.37 44C117.837 47.6 118.57 52.7667 118.57 59.5C118.57 64.0333 118.303 67.8 117.77 70.8C117.237 73.7333 116.137 76.1333 114.47 78C112.87 79.8 110.47 80.7 107.27 80.7C104.07 80.7 101.637 79.8 99.9699 78C98.3699 76.1333 97.3033 73.7333 96.7699 70.8C96.2366 67.8 95.9699 64.0333 95.9699 59.5C95.9699 52.7667 96.7033 47.6 98.1699 44C99.6366 40.3333 102.67 38.5 107.27 38.5C111.87 38.5 114.903 40.3333 116.37 44Z" fill="white" fill-opacity="0.95"/>
<path d="M195.827 44C197.294 47.6 198.027 52.7667 198.027 59.5C198.027 64.0333 197.76 67.8 197.227 70.8C196.694 73.7333 195.594 76.1333 193.927 78C192.327 79.8 189.927 80.7 186.727 80.7C183.527 80.7 181.094 79.8 179.427 78C177.827 76.1333 176.76 73.7333 176.227 70.8C175.694 67.8 175.427 64.0333 175.427 59.5C175.427 52.7667 176.16 47.6 177.627 44C179.094 40.3333 182.127 38.5 186.727 38.5C191.327 38.5 194.36 40.3333 195.827 44Z" fill="white" fill-opacity="0.95"/>
<path fill-rule="evenodd" clip-rule="evenodd" d="M284 3H3V119H284V3ZM33.223 28.1C28.823 31.9667 26.4897 37.4667 26.223 44.6H42.923C43.123 42.3333 43.823 40.4333 45.023 38.9C46.2897 37.3667 48.1897 36.6 50.723 36.6C53.0564 36.6 54.8897 37.2667 56.223 38.6C57.5564 39.9333 58.223 41.8 58.223 44.2C58.223 47.2 57.1564 49.3 55.023 50.5C52.9564 51.6333 50.223 52.2 46.823 52.2H43.623V66.1H46.823C51.2897 66.1 54.523 66.8333 56.523 68.3C58.5897 69.7 59.6231 72 59.6231 75.2C59.6231 77.6667 58.8897 79.6667 57.423 81.2C56.023 82.6667 54.023 83.4 51.423 83.4C48.3564 83.4 46.023 82.5667 44.423 80.9C42.823 79.1667 41.9897 76.8333 41.923 73.9H25.323C25.5897 81.8333 28.0897 87.7667 32.823 91.7C37.623 95.6333 44.023 97.6 52.023 97.6C57.023 97.6 61.323 96.7 64.923 94.9C68.5897 93.1 71.3564 90.6333 73.2231 87.5C75.1564 84.3 76.123 80.6333 76.123 76.5C76.123 71.9 75.023 68.1333 72.8231 65.2C70.623 62.2667 67.623 60.1667 63.823 58.9V58.5C66.7564 57.5 69.3231 55.6333 71.523 52.9C73.723 50.1 74.823 46.5 74.823 42.1C74.823 38.3667 73.8897 35 72.023 32C70.223 29 67.523 26.6333 63.923 24.9C60.3897 23.1667 56.1231 22.3 51.123 22.3C43.5897 22.3 37.623 24.2333 33.223 28.1ZM85.7699 32.4C81.3699 39 79.1699 48.0333 79.1699 59.5C79.1699 71.1 81.3699 80.2 85.7699 86.8C90.2366 93.4 97.4033 96.7 107.27 96.7C117.137 96.7 124.27 93.4 128.67 86.8C133.137 80.2 135.37 71.1 135.37 59.5C135.37 48.0333 133.137 39 128.67 32.4C124.27 25.8 117.137 22.5 107.27 22.5C97.4033 22.5 90.2366 25.8 85.7699 32.4ZM139.704 95.2C141.638 96.9333 144.104 97.8 147.104 97.8C150.038 97.8 152.438 96.9333 154.304 95.2C156.238 93.4 157.204 91.2 157.204 88.6C157.204 85.9333 156.238 83.7 154.304 81.9C152.438 80.1 150.038 79.2 147.104 79.2C144.104 79.2 141.638 80.1 139.704 81.9C137.838 83.7 136.904 85.9333 136.904 88.6C136.904 91.2 137.838 93.4 139.704 95.2ZM165.227 32.4C160.827 39 158.627 48.0333 158.627 59.5C158.627 71.1 160.827 80.2 165.227 86.8C169.694 93.4 176.86 96.7 186.727 96.7C196.594 96.7 203.727 93.4 208.127 86.8C212.594 80.2 214.827 71.1 214.827 59.5C214.827 48.0333 212.594 39 208.127 32.4C203.727 25.8 196.594 22.5 186.727 22.5C176.86 22.5 169.694 25.8 165.227 32.4ZM238.361 97L263.461 36.8V24.1H215.161V38.7H246.261L220.861 97H238.361Z" fill="white" fill-opacity="0.95"/>
</g>
<defs>
<filter id="filter0_f_351_14" x="0.281718" y="0.281718" width="286.437" height="121.437" filterUnits="userSpaceOnUse" color-interpolation-filters="sRGB">
<feFlood flood-opacity="0" result="BackgroundImageFix"/>
<feBlend mode="normal" in="SourceGraphic" in2="BackgroundImageFix" result="shape"/>
<feGaussianBlur stdDeviation="1.35914" result="effect1_foregroundBlur_351_14"/>
</filter>
</defs>
</svg>
